<svg xmlns="http://www.w3.org/2000/svg" width="420px" height="483px" viewBox="-5 -5 420 483"><style>
  text {
    fill: #333;
    font-family: Arial, sans-serif;
  }
  .node line {
    stroke: #ccc;
  }
  .node .background {
    fill: #f0f0f0;
  }
  .node .border {
    fill: transparent;  
    stroke: #888;
    stroke-width: 2;
  }
  .link {
    stroke: #888;
    stroke-width: 2;
  }
</style><g transform="translate(90, 0)"><line class="link" x1="0" y1="0" x2="0" y2="254"></line><text x="10" y="214">0,n</text></g><g transform="translate(90, 254)"><line class="link" x1="0" y1="0" x2="0" y2="125"></line><text x="10" y="85">0,n</text></g><g transform="translate(90, 0)"><line class="link" x1="0" y1="0" x2="230" y2="254"></line><text x="203.7795275590551" y="214">0,n</text></g><g transform="translate(320, 254)"><line class="link" x1="0" y1="0" x2="0" y2="125"></line><text x="10" y="85">1</text></g><g class="node" transform="translate(5, 0)"><rect class="background" x="-5" rx="5" width="180" height="154"></rect><text y="17">developer</text><g transform="translate(0, 29)"><line stroke-width="2" x1="-5" x2="175" y1="-3" y2="-3"></line><text fill="white" y="17">firstname</text><text fill="white" y="37">lastname</text><text fill="white" y="57">birthday</text><text fill="white" y="77">join_date</text><text fill="white" y="97">matricule</text><text fill="white" y="117">main_technology</text></g><rect class="border" x="-5" rx="5" width="180" height="154"></rect></g><g class="node" transform="translate(5, 254)"><rect class="background" x="-5" rx="5" width="180" height="25"></rect><text y="17">learn</text><rect class="border" x="-5" rx="5" width="180" height="25"></rect></g><g class="node" transform="translate(235, 254)"><rect class="background" x="-5" rx="5" width="180" height="25"></rect><text y="17">in</text><rect class="border" x="-5" rx="5" width="180" height="25"></rect></g><g class="node" transform="translate(5, 379)"><rect class="background" x="-5" rx="5" width="180" height="94"></rect><text y="17">technologies</text><g transform="translate(0, 29)"><line stroke-width="2" x1="-5" x2="175" y1="-3" y2="-3"></line><text fill="white" y="17">code</text><text fill="white" y="37">name_fr</text><text fill="white" y="57">name_en</text></g><rect class="border" x="-5" rx="5" width="180" height="94"></rect></g><g class="node" transform="translate(235, 379)"><rect class="background" x="-5" rx="5" width="180" height="54"></rect><text y="17">enterprise</text><g transform="translate(0, 29)"><line stroke-width="2" x1="-5" x2="175" y1="-3" y2="-3"></line><text fill="white" y="17">name</text></g><rect class="border" x="-5" rx="5" width="180" height="54"></rect></g></svg>